# xmcd
#
# Track frame offsets:
#       150
#       16763
#       33695
#       53018
#       66933
#       83478
#       94965
#       106435
#
# Disc length: 1700 seconds
#
# Revision: 4
# Processed by: cddbd v1.5.2PL0 Copyright (c) Steve Scherf et al.
# Submitted via: FreeDbEdit v0.1
#
DISCID=5e06a208
DTITLE=Various Artist - A Country Christmas, Volume 4
DYEAR=1900
DGENRE=Christmas
TTITLE0=Dolly Parton - Winter Wonderland/Sleigh Ride
TTITLE1=Charley Pride - Christmas Without Mary
TTITLE2=Ed Bruce - Christmas Started With a Child
TTITLE3=The Judds - Who Is the Babe
TTITLE4=Keith Whitley - A Christmas Letter
TTITLE5=Pake McEntire - Santa Are You Coming to Atlanta
TTITLE6=Eddy Raven - Santa Claus Is Coming for Christmas (Why Can't You)
TTITLE7=Hilary Kanter - California Christmas
EXTD=
EXTT0=Dolly Parton\n
EXTT1=Charley Pride\n
EXTT2=Ed Bruce\n
EXTT3=The Judds\n
EXTT4=Keith Whitley\n
EXTT5=Pake McEntire\n
EXTT6=Eddy Raven\n
EXTT7=Hillary Kanter\n
PLAYORDER=
